<?xml version="1.0" encoding="utf-8"?>
<svg version="1.1" xmlns="http://www.w3.org/2000/svg" xmlns:xlink="http://www.w3.org/1999/xlink" x="0" y="0" viewBox="0 0 64 64" style="enable-background:new 0 0 64 64;" xml:space="preserve">
  <linearGradient id="A" gradientUnits="userSpaceOnUse" x1="30.451" y1="506" x2="30.451" y2="545.11" gradientTransform="translate(0 -506)">
    <stop offset="0" stop-color="#c9c9c9"/>
    <stop offset="1" stop-color="#b3b3b3"/>
  </linearGradient>
  <path d="M40.91 1.55C38.37.64 35.3 0 31.63 0c-8.86 0-17.5 4.82-17.5 14.98 0 12 11.83 14.92 14.76 15.91 5.31 1.92 10.24 3.72 10.33 8.22a11.12 11.12 0 0 0 4.39-8.85c0-1.69-.37-3.28-1.04-4.72-.27-.58-.73-1.04-1.3-1.34-2.28-1.15-4.7-2.01-7-2.81-7.48-2.42-9.1-4.06-9.18-6.73 0-3.52 3.28-5.36 6.95-5.36 5.31 0 9.95 3.85 11.09 4.82 0 0 2.92-3.07 3.64-6.83.01-.1.03-.21.01-.3.08-2.38-3.5-4.59-5.87-5.44z" fill="url(#A)"/>
  <linearGradient id="B" gradientUnits="userSpaceOnUse" x1="13.333" y1="548.274" x2="50.667" y2="548.274" gradientTransform="translate(0 -506)">
    <stop offset="0" stop-color="#939393"/>
    <stop offset=".54" stop-color="#b1b1b1"/>
    <stop offset="1" stop-color="#b8b8b8"/>
  </linearGradient>
  <path d="M31.16 44.69c-4.61 0-8.1-1.73-10.33-3.3-1.6-1.13-3.82-.6-4.79 1.1l-2.31 4.06c-.73 1.28-.45 2.89.7 3.83 2.61 2.15 8.09 5.45 17.28 5.45 11.8 0 18.95-8.34 18.95-16.62 0-4.4-1.61-7.82-3.95-10.51 1.15 8.32-5.5 15.99-15.55 15.99z" fill="url(#B)"/>
  <linearGradient id="C" gradientUnits="userSpaceOnUse" x1="25.885" y1="567.256" x2="37.879" y2="567.256" gradientTransform="translate(0 -506)">
    <stop offset="0" stop-color="#939393"/>
    <stop offset=".54" stop-color="#b1b1b1"/>
    <stop offset="1" stop-color="#b8b8b8"/>
  </linearGradient>
  <path d="M37.27 58.52c-1.73.37-3.58.58-5.54.58-1.9 0-3.66-.13-5.27-.36a.513.513 0 0 0-.57.61 6.137 6.137 0 0 0 11.96-.25c.1-.34-.22-.65-.58-.58z" fill="url(#C)"/>
</svg>
